<?xml version="1.0" encoding="UTF-8"?>
<svg id="Layer_1" xmlns="http://www.w3.org/2000/svg" viewBox="0 0 1462.69 435.13">
  <defs>
    <style>
      .cls-1 {
        fill: #0a0f2d;
      }
    </style>
  </defs>
  <g>
    <g>
      <path class="cls-1" d="M779.5,301.74c-.56,1.57-1.12,3.01-1.68,4.33-.56,1.32-1.17,2.47-1.81,3.45-.64.98-1.34,1.75-2.1,2.31-.76.56-1.61.84-2.56.84h-.84c-1.13,0-2.07-.26-2.86-.8-.79-.53-1.47-1.29-2.06-2.27-.59-.98-1.14-2.14-1.64-3.49-.5-1.34-1.03-2.8-1.6-4.37l-7.65-21.85h-11.09l8.82,25.21c.84,2.41,1.75,4.64,2.74,6.68.98,2.05,2.16,3.82,3.53,5.34,1.37,1.51,3.01,2.69,4.92,3.53,1.9.84,4.2,1.26,6.89,1.26h.84c2.86,0,5.25-.42,7.18-1.26,1.93-.84,3.56-2.01,4.88-3.53,1.31-1.51,2.43-3.29,3.36-5.34.93-2.04,1.81-4.27,2.65-6.68l8.82-25.21h-11.09l-7.65,21.85Z"/>
      <rect class="cls-1" x="834.39" y="296.86" width="31.18" height="7.99"/>
      <path class="cls-1" d="M827.5,281.1c-2.07.82-3.84,1.95-5.3,3.4-1.46,1.46-2.59,3.22-3.4,5.3-.81,2.07-1.22,4.37-1.22,6.89v8.4c0,2.52.41,4.82,1.22,6.89.81,2.07,1.95,3.84,3.4,5.3,1.46,1.46,3.22,2.59,5.3,3.4,2.07.81,4.37,1.22,6.89,1.22h36.14v-9.24h-33.37c-3.25,0-5.57-.82-6.97-2.48-1.4-1.65-2.1-3.8-2.1-6.43v-5.71c0-2.69.7-4.85,2.1-6.47,1.4-1.63,3.72-2.44,6.97-2.44h33.37v-9.24h-36.14c-2.53,0-4.82.41-6.89,1.22Z"/>
      <path class="cls-1" d="M905.19,310.35c-1.55-1.54-2.31-3.94-2.31-7.19v-23.28h-10.51v25.21c0,2.52.41,4.82,1.22,6.89.81,2.07,1.95,3.84,3.4,5.3,1.45,1.46,3.22,2.59,5.29,3.4,2.07.81,4.37,1.22,6.89,1.22h27.74v-9.24h-24.54c-3.25,0-5.64-.77-7.18-2.31Z"/>
      <path class="cls-1" d="M1007.94,284.51c-1.46-1.46-3.22-2.59-5.3-3.4-2.07-.81-4.37-1.22-6.89-1.22h-21.01c-2.53,0-4.82.41-6.89,1.22-2.07.82-3.84,1.95-5.3,3.4-1.46,1.46-2.59,3.22-3.4,5.3-.81,2.07-1.22,4.37-1.22,6.89v8.4c0,2.52.41,4.82,1.22,6.89.81,2.07,1.95,3.84,3.4,5.3s3.22,2.59,5.3,3.4c2.07.81,4.37,1.22,6.89,1.22h21.01c2.52,0,4.82-.41,6.89-1.22,2.07-.81,3.84-1.95,5.3-3.4,1.45-1.46,2.59-3.22,3.4-5.3.81-2.07,1.22-4.37,1.22-6.89v-8.4c0-2.53-.41-4.82-1.22-6.89-.81-2.07-1.95-3.84-3.4-5.3ZM1002.06,305.09c0,2.3-.57,4.13-1.72,5.51-1.15,1.37-2.68,2.06-4.58,2.06h-21.01c-1.91,0-3.44-.69-4.58-2.06-1.15-1.37-1.72-3.2-1.72-5.51v-8.4c0-2.3.57-4.13,1.72-5.51,1.14-1.37,2.68-2.06,4.58-2.06h21.01c1.91,0,3.43.69,4.58,2.06,1.15,1.37,1.72,3.21,1.72,5.51v8.4Z"/>
      <path class="cls-1" d="M1044.33,281.1c-2.07.82-3.84,1.95-5.3,3.4-1.46,1.46-2.59,3.22-3.4,5.3-.81,2.07-1.22,4.37-1.22,6.89v8.4c0,2.52.41,4.82,1.22,6.89.81,2.07,1.95,3.84,3.4,5.3,1.46,1.46,3.22,2.59,5.3,3.4,2.07.81,4.37,1.22,6.89,1.22h31.93v-9.24h-28.66c-3.25,0-5.66-.8-7.23-2.4-1.57-1.6-2.35-3.74-2.35-6.43v-5.97c0-2.63.78-4.75,2.35-6.34,1.57-1.6,3.98-2.4,7.23-2.4h28.66v-9.24h-31.93c-2.53,0-4.82.41-6.89,1.22Z"/>
      <polygon class="cls-1" points="1111.98 279.88 1104.17 279.88 1104.17 289.13 1111.98 289.13 1111.98 312.66 1104.17 312.66 1104.17 321.91 1111.98 321.91 1122.49 321.91 1130.22 321.91 1130.22 312.66 1122.49 312.66 1122.49 289.13 1130.22 289.13 1130.22 279.88 1122.49 279.88 1111.98 279.88"/>
      <polygon class="cls-1" points="1169.98 279.88 1152.07 279.88 1152.07 289.13 1169.98 289.13 1169.98 321.91 1180.48 321.91 1180.48 289.13 1198.3 289.13 1198.3 279.88 1180.48 279.88 1169.98 279.88"/>
      <path class="cls-1" d="M1264.27,279.88v7.31c0,3.36-.87,5.78-2.6,7.27-1.74,1.49-4.01,2.23-6.81,2.23h-14.7c-2.86,0-5.16-.74-6.89-2.23s-2.61-3.91-2.61-7.27v-7.31h-10.51v8.57c0,3.14.41,5.8,1.22,7.98.81,2.19,1.95,3.99,3.4,5.42,1.45,1.43,3.22,2.47,5.29,3.11,2.07.64,4.37.97,6.89.97h5.3v15.97h10.5v-15.97h5.21c2.52,0,4.82-.32,6.89-.97,2.07-.64,3.83-1.68,5.29-3.11,1.46-1.43,2.59-3.23,3.41-5.42.81-2.18,1.22-4.85,1.22-7.98v-8.57h-10.51Z"/>
    </g>
    <g>
      <path class="cls-1" d="M1071.19,113.23v71.37c0,7.13-1.15,13.64-3.45,19.5-2.3,5.86-5.51,10.86-9.63,14.98-4.13,4.13-9.12,7.35-14.99,9.64-5.87,2.3-12.37,3.44-19.51,3.44h-59.46c-7.14,0-13.64-1.15-19.51-3.44-5.87-2.3-10.86-5.51-14.99-9.64-4.13-4.12-7.33-9.12-9.63-14.98-2.3-5.86-3.45-12.37-3.45-19.5v-71.37h23.79v67.8c0,9.04,2.69,16.25,8.09,21.64,5.39,5.39,12.61,8.09,21.64,8.09h47.58c9.04,0,16.26-2.7,21.64-8.09,5.39-5.39,8.09-12.6,8.09-21.64v-67.8h23.79Z"/>
      <path class="cls-1" d="M1408.98,134.63h-97.05c-9.67,0-16.93,2.62-21.77,7.85-4.84,5.24-7.25,12.14-7.25,20.71v19.03c0,8.56,2.42,15.45,7.25,20.69,4.84,5.23,12.1,7.85,21.77,7.85h97.05v21.41h-102.29c-7.13,0-13.64-1.15-19.5-3.44-5.87-2.3-10.87-5.51-14.99-9.64-4.13-4.12-7.33-9.12-9.64-14.98-2.3-5.86-3.44-12.37-3.44-19.5v-23.79c0-7.15,1.15-13.64,3.44-19.52,2.3-5.86,5.51-10.86,9.64-14.98,4.12-4.12,9.12-7.33,14.99-9.63,5.87-2.3,12.37-3.46,19.5-3.46h102.29v21.41ZM1394.94,182.22h-88.25v-19.03h88.25v19.03Z"/>
      <path class="cls-1" d="M896.47,137.25c-2.3-5.08-5.52-9.36-9.64-12.85-4.13-3.48-9.12-6.23-14.99-8.21-5.87-1.97-12.37-2.97-19.5-2.97h-108.73v118.94h23.79v-97.09c2.09-.3,80.18-.44,80.18-.44,37.79,0,36.62,39.25-.24,39.25h-54.47v21.41h59.47c7.13,0,13.64-.99,19.5-2.97,5.86-1.99,10.86-4.75,14.99-8.32,4.12-3.58,7.33-7.89,9.64-12.97,2.3-5.08,3.44-10.71,3.44-16.9s-1.15-11.8-3.44-16.88Z"/>
      <path class="cls-1" d="M1244.84,151.04c0-12.29-5.19-21.19-12.85-27.35-4.13-3.32-9.08-5.9-14.86-7.73-5.79-1.82-12.18-2.74-19.15-2.74h-94.98l-8.55,85.71,24.04-2.03-6.72,55.71,40.05-78.51-24.93.62,7.38-39.77c10.7-.21,60.11-.33,60.14-.33,23.99,1.83,28.08,15.43,19.63,28.66-8.91,13.94-40.52,11.51-40.53,11.51l-10,19.3h18.71c21,0,34.06,6.77,34.06,22.6v15.47h23.79v-17.6c0-11.62-4.1-24.2-12.98-33.21,1.28-.81,2.64-1.54,3.81-2.47,7.97-6.33,13.92-14.42,13.92-27.84Z"/>
    </g>
  </g>
  <g>
    <path class="cls-1" d="M121.87,149.99c45.92-42.6,133.89-71.42,234.88-71.42-80.81,0-151.17,28.82-187.92,71.42h-46.97ZM544.67,149.99h46.97c-45.92-42.6-133.89-71.42-234.88-71.42,80.81,0,151.17,28.82,187.92,71.42ZM544.67,285.14c-36.75,42.59-107.11,71.41-187.92,71.41,101,0,188.97-28.82,234.88-71.41h-46.97ZM168.84,285.14h-46.97c45.92,42.6,133.89,71.41,234.88,71.41-80.81,0-151.17-28.82-187.92-71.41Z"/>
    <g>
      <path class="cls-1" d="M599.05,186.95h-.01c-43.92-15.11-93.55-19.75-151.69-14.22l-1.14-.72c-.9-.57-1.8-1.14-2.4-1.53-47.61-29.2-107.18-39.7-163.43-28.79-7.68,1.47-15.52,3.71-21.46,5.49-50.22,13-100.26,25.7-148.76,34.09.02,0,24.02-1.9,48.25-1.59,7.3.1,14.86.2,22.28.06,31.97-.75,60.06,2.05,85.85,8.43,5.55,1.08,11.32,1.97,17.65,2.7,37.54,4.1,78.17,3.6,127.89-1.58,68.67-10.53,130.61-8.26,184.08,6.75,26.76,7.71,47.98,14.99,64.23,26.02h0c-14.56-14.06-34.05-25.22-61.34-35.13ZM430.53,174.6c-3.79.47-7.62.99-11.42,1.54l-1.57.25c-3.53.56-7.92,1.27-11.22,1.62-38.96,4.19-84.83,7.7-129.56,1.95-5.61-.72-11.24-1.9-16.69-3.04-2.96-.62-5.91-1.23-8.88-1.79-5.48-1-11.27-1.81-17.68-2.48-10.67-1.05-21.86-1.69-33.37-1.93,19.05-3.34,40.42-7.47,61.73-13.01,52.84-16.29,111.09-10.45,168.65,16.89Z"/>
      <path class="cls-1" d="M592.66,261.13c.05-7.06-.68-13.4-2.24-19.34-3.96-15.2-14.62-28-29.27-35.11-14.71-7.14-31.46-7.61-45.92-1.31-21.83,8.97-31.45,33.06-33.18,52.61l-.04.54-9.83.26-14.9-.32-3.37-.16c-6.27-.3-12.76-.61-19.05-1.1l-5.42-.42c-5.64-.43-12.04-.91-17.03-1.43-50.47-4.84-101.71-12.21-151.26-19.33l-13.23-1.9h0c37.3,9.09,76.9,18.84,118.37,25.31,13.84,2.21,29.84,4.38,45.07,6.1,18.75,2.09,40.01,4.22,61.68,4.22,4.83,0,9.68-.11,14.53-.34l5.1-.27.04-2.29c.04-2.6.08-5.55.3-7.84.97-9.94,4.63-28.24,18.29-39.16,12.25-9.83,30.75-11.71,46.06-4.71,18.46,8.32,28.91,26.22,28.68,49.12l.03,3.3h3.16c16.53-.15,32.45-2.08,47.32-5.73,5.3-1.36,10.53-3.02,15.13-4.8h0c-17.44,4.7-37.15,4.84-59.02,4.11Z"/>
      <path class="cls-1" d="M239.91,258.89c-1.03-15.12-5.76-28.56-13.7-38.94-15.96-20.99-48.12-25.56-71.78-10.25l-88.11,5.01,75.66,6.18c-3.09,3.63-5.68,7.82-7.72,12.47l-80.54,6.8,76.86,4.7c-1.07,4.99-1.59,10.21-1.54,15.54-23.13-.38-58.17,2.37-58.17,2.37,10.78.98,65.83,5.62,65.84,5.62,0,0-.15-26.52,12.8-41.27,13.13-14.96,35.52-19.99,53.26-11.97,28.05,12.68,27.34,53.9,27.34,53.9,0,0,100.15-2.78,121.12-4.23h0c-9.31-.63-111.31-5.94-111.31-5.94Z"/>
      <path class="cls-1" d="M125.46,199.18h0c12.22-.04,26.68-.35,41.29-2.29l7-.93-7-.93c-14.58-1.94-29.05-2.25-41.29-2.3-12.23.05-26.7.37-41.28,2.3l-7.04.93,7.04.93c14.56,1.92,29.04,2.24,41.28,2.29Z"/>
      <path class="cls-1" d="M630.19,227.55c6.44,0,11.08-1.95,11.18-1.99l2.11-.92-42.1-16.14,1.46,2.37c8.4,13.63,19.29,16.68,27.35,16.68Z"/>
    </g>
  </g>
</svg>